<svg width="25" height="20" viewBox="0 0 25 20" xmlns="http://www.w3.org/2000/svg">
    <g fill="#DEDEDE" fill-rule="nonzero">
        <path d="M23.178 2.674H16.56L15.224.364A.72.72 0 0 0 14.601 0H10.4a.72.72 0 0 0-.623.364L8.44 2.674H6.268v-.509a.735.735 0 0 0-.725-.745h-2.68c-.4 0-.725.333-.725.745v.51h-.316C.816 2.674 0 3.513 0 4.548v13.576C0 19.161.816 20 1.822 20h21.356C24.184 20 25 19.16 25 18.125V4.549c0-1.035-.816-1.875-1.822-1.875zm-10.678 14c-2.864 0-5.186-2.39-5.186-5.337C7.314 8.39 9.636 6 12.5 6s5.186 2.39 5.186 5.337c0 2.948-2.322 5.337-5.186 5.337zM22.041 6.54h-2.27a.735.735 0 0 1-.725-.746c0-.412.324-.746.725-.746h2.27c.4 0 .725.334.725.746a.735.735 0 0 1-.725.746z"/>
        <ellipse cx="12.5" cy="11.337" rx="3.623" ry="3.728"/>
    </g>
</svg>
