<svg width="21" height="21" viewBox="0 0 21 21" xmlns="http://www.w3.org/2000/svg">
    <path d="M4.752 0a.955.955 0 0 0-.656.289L.278 4.1a.952.952 0 0 0 0 1.344l3.818 3.813a.958.958 0 0 0 1.352-.001.954.954 0 0 0 .001-1.35l-2.183-2.18H18.14v2.919a.952.952 0 0 0 1.453.896.952.952 0 0 0 .449-.896V5.727a1.92 1.92 0 0 0-1.902-1.908H3.257l2.192-2.186A.952.952 0 0 0 4.752 0zm11.464 11.43a.955.955 0 0 0-.662 1.639l2.191 2.188H2.863v-2.834a.952.952 0 0 0-.965-.964.954.954 0 0 0-.944.964v2.834c0 1.04.868 1.899 1.91 1.899h14.881l-2.19 2.188a.952.952 0 0 0 .408 1.626c.34.087.7-.02.937-.277l3.819-3.811a.952.952 0 0 0 0-1.351L16.9 11.719a.955.955 0 0 0-.684-.288z" fill="#DBDBDB" fill-rule="nonzero"/>
</svg>
