<svg width="20" height="20" viewBox="0 0 20 20" xmlns="http://www.w3.org/2000/svg">
    <path d="M15 6.667c-.085 0-.17.002-.256.006A5.841 5.841 0 0 0 15 5 5 5 0 0 0 5 5c.004.567.09 1.13.256 1.673A5 5 0 1 0 5 16.667a5.547 5.547 0 0 0 3.1-.996c-.212 1.16-.606 2.003-1.009 2.416-.09.092-.264.246-.424.246a.833.833 0 0 0 0 1.667h6.666a.833.833 0 1 0 0-1.667c-.13 0-.299-.098-.473-.277-.417-.427-.826-1.267-1.049-2.4A5.82 5.82 0 0 0 15 16.667a5 5 0 0 0 0-10z" fill="#FF7606" fill-rule="nonzero" fill-opacity=".3"/>
</svg>
