<svg width="24" height="24" viewBox="0 0 24 24" xmlns="http://www.w3.org/2000/svg">
    <g fill="none" fill-rule="evenodd">
        <circle fill="#FF7606" cx="12" cy="12" r="12"/>
        <path d="M19.37 9.773c.003.049 0 .099-.011.148l-.987 4.4c-.05.222-.228.378-.433.379l-5.922.033H6.093c-.206 0-.385-.156-.435-.379l-.987-4.417a.555.555 0 0 1-.012-.152C4.278 9.65 4 9.253 4 8.783c0-.579.423-1.05.942-1.05.52 0 .942.471.942 1.05 0 .326-.134.618-.344.81l1.236 1.388c.312.351.745.552 1.189.552.524 0 1.024-.277 1.339-.742l2.03-2.999a1.11 1.11 0 0 1-.276-.742c0-.579.423-1.05.942-1.05.52 0 .942.471.942 1.05 0 .28-.1.536-.262.724l.002.003 2.016 3.007c.315.47.816.75 1.342.75.447 0 .868-.195 1.184-.548l1.244-1.385a1.097 1.097 0 0 1-.352-.818c0-.579.422-1.05.942-1.05s.942.471.942 1.05c0 .457-.263.846-.63.99zM18.275 16.3c0-.276-.2-.5-.448-.5H6.223c-.248 0-.449.224-.449.5v1.2c0 .276.201.5.45.5h11.603c.248 0 .448-.224.448-.5v-1.2z" fill="#FFF" fill-rule="nonzero"/>
    </g>
</svg>
