<svg width="126" height="126" viewBox="0 0 126 126" xmlns="http://www.w3.org/2000/svg">
    <g fill="none" fill-rule="evenodd">
        <path stroke="#FF7606" stroke-width="3" d="M124.398 1.5 2 124.67"/>
        <path d="M64.898 22c8.273 0 15 6.663 15 14.857V44h2.375c3.1 0 5.625 2.556 5.625 5.7v26.6c0 3.144-2.525 5.7-5.625 5.7h-33.75c-3.1 0-5.625-2.556-5.625-5.7V49.7c0-3.144 2.525-5.7 5.625-5.7h1.375v-7.143c0-8.194 6.728-14.857 15-14.857zm-13.97 25.8h-2.405c-1.032 0-1.875.851-1.875 1.9v26.6c0 1.049.843 1.9 1.875 1.9h33.75c1.033 0 1.875-.851 1.875-1.9V49.7c0-1.049-.842-1.9-1.875-1.9H78.87a1.88 1.88 0 0 1-.846.2 1.88 1.88 0 0 1-.845-.2H52.619a1.88 1.88 0 0 1-.846.2 1.88 1.88 0 0 1-.845-.2zm13.97 6.2c2.758 0 5 2.242 5 5a5.007 5.007 0 0 1-2.999 4.582v6.477c0 1.071-.897 1.941-2 1.941-1.105 0-2-.87-2-1.941v-6.476a5.007 5.007 0 0 1-3-4.583c0-2.758 2.242-5 5-5zm0 3.75c-.687 0-1.25.56-1.25 1.25s.563 1.25 1.25 1.25c.688 0 1.25-.56 1.25-1.25s-.562-1.25-1.25-1.25zm0-32.036c-6.202 0-11.25 5-11.25 11.143V44h22.5v-7.143c0-6.143-5.047-11.143-11.25-11.143z" fill="#FF7606" fill-rule="nonzero"/>
    </g>
</svg>
