<svg width="27" height="27" viewBox="0 0 27 27" xmlns="http://www.w3.org/2000/svg">
    <g fill="none" fill-rule="evenodd">
        <circle fill="#FF7606" cx="13.5" cy="13.5" r="13.5"/>
        <g fill="#FFF" fill-rule="nonzero">
            <path d="M8.273 16.397a.5.5 0 0 1-.354-.854l7.819-7.818a.5.5 0 1 1 .707.707l-7.818 7.819a.499.499 0 0 1-.354.146z"/>
            <path d="M7.501 20a.5.5 0 0 1-.49-.605l.773-3.603a.501.501 0 0 1 .979.21l-.773 3.603A.5.5 0 0 1 7.5 20zM11.103 19.227a.5.5 0 0 1-.354-.854l7.819-7.818a.5.5 0 1 1 .707.708l-7.818 7.817a.499.499 0 0 1-.354.147z"/>
            <path d="M7.5 20a.5.5 0 0 1-.105-.99l3.603-.773a.5.5 0 0 1 .21.979l-3.603.773A.49.49 0 0 1 7.5 20zM17.506 12.824a.498.498 0 0 1-.353-.147l-2.83-2.83a.5.5 0 1 1 .707-.707l2.83 2.83a.5.5 0 0 1-.354.854zM18.922 11.41a.499.499 0 0 1-.354-.855c.278-.279.431-.656.431-1.061 0-.406-.153-.783-.431-1.061A1.488 1.488 0 0 0 17.506 8c-.405 0-.782.153-1.06.432a.5.5 0 1 1-.709-.708A2.48 2.48 0 0 1 17.507 7a2.48 2.48 0 0 1 1.768.725A2.48 2.48 0 0 1 20 9.494a2.48 2.48 0 0 1-.725 1.769.498.498 0 0 1-.353.146z"/>
        </g>
    </g>
</svg>
