<svg width="20" height="15" viewBox="0 0 20 15" xmlns="http://www.w3.org/2000/svg">
    <g fill="#FFF" fill-rule="nonzero">
        <path d="M11.671 9.757a3.001 3.001 0 0 1-3.342 0L.133 4.285A2.949 2.949 0 0 1 0 4.191v8.965C0 14.184.833 15 1.841 15H18.16A1.842 1.842 0 0 0 20 13.156V4.191a2.938 2.938 0 0 1-.133.095l-8.196 5.47z"/>
        <path d="M.783 3.309 8.98 8.78a1.837 1.837 0 0 0 2.042 0l8.196-5.471c.49-.327.783-.875.783-1.466A1.844 1.844 0 0 0 18.16 0H1.84C.827 0 0 .827 0 1.844c0 .59.293 1.138.783 1.465z"/>
    </g>
</svg>
