<svg width="26" height="27" viewBox="0 0 26 27" xmlns="http://www.w3.org/2000/svg">
    <g fill="#D3D3D3" fill-rule="nonzero">
        <path d="M9 9.72 4.287 13H3.241C1.621 13 .243 11.74 0 10.037l2.473-1.453c0-.633.205-1.226.553-1.697.35-.472.842-.821 1.422-.97l.276-.071L6.788 4 9 9.72zM25 21.475V27h-3.431v-2.873l-.035-.02c-1.645-.947-2.653-2.66-2.653-4.51h-8.692V27H6.758v-6.167A13.058 13.058 0 0 1 5 14.34L10.28 11l2.654 1.776h6.46c1.022 0 1.997.413 2.69 1.139.312.326.556.704.72 1.11.165.408.252.845.252 1.29v3.613L25 21.475zM24.197 0c-.874 1.632-2.074 3.145-3.578 4.507-1.407 1.275-3.082 2.421-4.976 3.409A29.856 29.856 0 0 1 11 9.848L12.648 11a31.437 31.437 0 0 0 3.693-1.621c2.023-1.05 3.818-2.278 5.333-3.646C23.558 4.03 25.013 2.1 26 0h-1.803z"/>
    </g>
</svg>
