<svg width="27" height="20" viewBox="0 0 27 20" xmlns="http://www.w3.org/2000/svg">
    <path d="M10.477 2.675c-.94.6-1.868 0-2.073-.825A1.542 1.542 0 0 1 8.889.297a1.27 1.27 0 0 1 1.534-.075c.458.303.719.895.61 1.464-.04.212.027.283.188.353 1.283.562 2.452 1.319 3.433 2.39a8.017 8.017 0 0 1 2.062 4.364c.01.065.025.128.044.23C19 6.446 21.544 5.784 24.48 7.481c.833-.746 1.365-.85 1.96-.386.503.393.693 1.099.464 1.727-.217.593-.795.983-1.357.915-.753-.091-1.133-.555-1.27-1.572-.509.025-.971.21-1.403.49-.792.514-1.344 1.271-1.78 2.133-.768 1.52-1.163 3.172-1.418 4.866a70.155 70.155 0 0 0-.361 2.938c-.032.297-.16.5-.396.581-.55.192-1.1.41-1.666.506a21.84 21.84 0 0 1-7.713-.047c-.438-.082-.865-.244-1.288-.398-.31-.114-.471-.338-.516-.734-.258-2.262-1.057-4.246-2.684-5.765a6.628 6.628 0 0 0-2.343-1.431c-.067.462-.225.883-.606 1.108a1.77 1.77 0 0 1-.817.25c-.582.016-1.09-.458-1.241-1.078-.151-.618.088-1.277.585-1.611.559-.376 1.151-.275 1.774.307.404-.258.803-.535 1.22-.774.92-.528 1.893-.855 2.948-.832 1.011.022 1.903.397 2.695 1.066.097.082.193.166.29.246.013.01.034.01.05.014 1.437-2.183 2.109-5.298.87-7.326" fill="#FF7606" fill-rule="evenodd" fill-opacity=".3"/>
</svg>
