<svg width="21" height="28" viewBox="0 0 21 28" xmlns="http://www.w3.org/2000/svg">
    <path d="M10.267 0c3.86 0 7 3.11 7 6.933l-.001 3.333h1.109c1.447 0 2.625 1.194 2.625 2.66V25.34c0 1.467-1.178 2.66-2.625 2.66H2.625C1.178 28 0 26.807 0 25.34V12.927c0-1.467 1.178-2.66 2.625-2.66l.641-.001V6.933c0-3.823 3.14-6.933 7-6.933zM3.75 12.042l-1.125-.002a.882.882 0 0 0-.875.887V25.34c0 .49.393.887.875.887h15.75a.882.882 0 0 0 .875-.887V12.927a.882.882 0 0 0-.875-.887l-1.592.002a.878.878 0 0 1-.783 0H4.533a.878.878 0 0 1-.783 0zm6.517 2.891a2.336 2.336 0 0 1 2.333 2.334c0 .955-.576 1.777-1.4 2.138v3.022c0 .5-.418.906-.933.906-.516 0-.934-.406-.934-.906v-3.022a2.336 2.336 0 0 1-1.4-2.138 2.336 2.336 0 0 1 2.334-2.334zm0 1.75a.584.584 0 0 0 0 1.167.584.584 0 0 0 0-1.167zm0-14.95c-2.895 0-5.25 2.333-5.25 5.2l-.001 3.333h10.5V6.933c0-2.867-2.355-5.2-5.25-5.2z" fill="#FF7606" fill-rule="nonzero"/>
</svg>
