<svg width="18" height="16" viewBox="0 0 18 16" xmlns="http://www.w3.org/2000/svg">
    <path d="M17.635 12.26 11.269 1.217C10.79.455 9.94 0 9 0 8.06 0 7.21.455 6.73 1.217l-.01.018L.375 12.243c-.49.778-.5 1.713-.025 2.5C.825 15.53 1.683 16 2.644 16H15.32c.962 0 1.854-.47 2.33-1.257a2.33 2.33 0 0 0-.014-2.483zM7.944 5.056c0-.549.472-.994 1.055-.994s1.056.445 1.056.994v3.98c0 .55-.473.995-1.056.995-.583 0-1.055-.446-1.055-.995v-3.98zm1.055 8.954c-.873 0-1.583-.67-1.583-1.492 0-.823.71-1.492 1.583-1.492.874 0 1.584.67 1.584 1.492 0 .823-.71 1.492-1.584 1.492z" fill="#FF7606" fill-rule="nonzero"/>
</svg>
