<svg width="18" height="18" viewBox="0 0 18 18" xmlns="http://www.w3.org/2000/svg">
    <path d="M17.863 5.155 12.798.136a.471.471 0 0 0-.662 0l-.022.021a1.611 1.611 0 0 0-.276 1.94L6.54 6.604a2.206 2.206 0 0 0-1.471-.555c-.591 0-1.146.228-1.564.642l-.032.031a.461.461 0 0 0 0 .657l3.034 3.007-2.955 2.928c-.059.06-1.457 1.489-2.377 2.625a62.104 62.104 0 0 1-1.058 1.29.46.46 0 0 0 .02.634.47.47 0 0 0 .641.022c.008-.007.204-.175 1.303-1.048 1.146-.912 2.588-2.298 2.653-2.361l2.95-2.924 2.872 2.846a.469.469 0 0 0 .662 0l.032-.031c.418-.414.648-.965.648-1.55 0-.544-.199-1.057-.561-1.459l4.548-5.251c.24.132.512.203.795.203.439 0 .852-.169 1.162-.477l.022-.021a.461.461 0 0 0 0-.657z" fill="#FF7606" fill-rule="nonzero"/>
</svg>
