<svg width="18" height="22" viewBox="0 0 18 22" xmlns="http://www.w3.org/2000/svg">
    <path d="M17.99 21.081 16.665 6.173a.784.784 0 0 0-.777-.72h-2.73V4.209C13.16 1.888 11.294 0 9 0 6.707 0 4.84 1.888 4.84 4.208v1.246H2.11a.784.784 0 0 0-.778.719L.003 21.14c-.02.22.054.44.202.603A.777.777 0 0 0 .78 22h16.438a.785.785 0 0 0 .77-.919zM6.4 4.208C6.401 2.758 7.567 1.58 9 1.58c1.433 0 2.599 1.18 2.599 2.63v1.245H6.4V4.208zM1.634 20.421 2.823 7.033H4.84v1.412c0 .436.35.79.78.79.432 0 .781-.354.781-.79V7.033H11.6v1.412c0 .436.349.79.78.79.431 0 .78-.354.78-.79V7.033h2.016l1.188 13.388H1.634z" fill="#000" fill-rule="nonzero"/>
</svg>
