<svg width="21" height="22" viewBox="0 0 21 22" xmlns="http://www.w3.org/2000/svg">
    <path d="M10.53 0c.28 0 .546.122.728.333 1.084 1.26 2.498 2.394 3.863 3.492C18.01 6.15 21 8.553 21 12.271 21 15.643 18.592 18 15.148 18c-1.45 0-2.744-.734-3.704-1.505.642 1.936 1.495 4.002 2.556 5.505a24.342 24.342 0 0 0-8 0c.913-1.283 1.669-2.976 2.27-4.648-.725.381-1.543.648-2.417.648C2.407 18 .001 15.643 0 12.27c0-3.72 2.99-6.122 5.881-8.446C7.246 2.726 8.66 1.591 9.743.333a.968.968 0 0 1 .73-.333z" fill="#FF7606" fill-rule="nonzero" fill-opacity=".3"/>
</svg>
