<?xml version="1.0" encoding="UTF-8"?>
<svg width="16px" height="15px" viewBox="0 0 16 15" version="1.1" xmlns="http://www.w3.org/2000/svg" xmlns:xlink="http://www.w3.org/1999/xlink">
    <title>Vector-31</title>
    <g id="Page-1" stroke="none" stroke-width="1" fill="none" fill-rule="evenodd" stroke-linecap="round" stroke-linejoin="round">
        <g id="17.-집사의-자랑-상세_집사의-리뷰" transform="translate(-349.000000, -605.000000)" fill="#FAFAFA" stroke="#EFEFEF">
            <g id="Group-8" transform="translate(0.000000, 70.000000)">
                <g id="Group" transform="translate(0.000000, 72.000000)">
                    <g id="Group-4" transform="translate(12.000000, 423.000000)">
                        <g id="Group-13" transform="translate(258.000000, 40.000000)">
                            <path d="M88.8490002,3.51499988 L87,0 L85.1509998,3.51499988 C85.0203769,3.77186208 84.831311,3.99449442 84.599,4.165 C84.3655584,4.33637848 84.095432,4.4510711 83.81,4.5 L80,5.24700008 L82.66,8.428 C83.0237726,8.82668318 83.1954231,9.364278 83.13,9.89999962 L82.6240001,14 L86.132,12.3000003 C86.4026203,12.1689316 86.6993108,12.100569 87,12.0999998 C87.2821176,12.1008594 87.5599048,12.169449 87.8100002,12.3000003 L91.3999998,13.895 L90.8940002,9.8440006 C90.8300486,9.30945624 91.0019896,8.773555 91.3649998,8.37600022 L94,5.24700008 L90.1900008,4.5 C89.9042178,4.45121964 89.6337332,4.3365203 89.3999998,4.165 C89.168054,3.9943778 88.9793376,3.77175484 88.8490002,3.51499988 Z" id="Vector-31"></path>
                        </g>
                    </g>
                </g>
            </g>
        </g>
    </g>
</svg>