<?xml version="1.0" encoding="UTF-8"?>
<svg width="16px" height="16px" viewBox="0 0 16 16" version="1.1" xmlns="http://www.w3.org/2000/svg" xmlns:xlink="http://www.w3.org/1999/xlink">
    <title>Vector-31</title>
    <g id="Page-1" stroke="none" stroke-width="1" fill="none" fill-rule="evenodd" stroke-linecap="round" stroke-linejoin="round">
        <g id="17.-집사의-자랑-상세_집사의-리뷰" transform="translate(-269.000000, -605.000000)" fill="#161719" stroke="#000000">
            <g id="Group-8" transform="translate(0.000000, 72.000000)">
                <g id="Group" transform="translate(0.000000, 72.000000)">
                    <g id="Group-4" transform="translate(12.000000, 423.000000)">
                        <g id="Group-13" transform="translate(258.000000, 40.000000)">
                            <path d="M8.84900016,3.51499988 L7,0 L5.15099984,3.51499988 C5.0203769,3.77186208 4.83131096,3.99449442 4.599,4.165 C4.3655584,4.33637848 4.09543204,4.4510711 3.81000004,4.5 L0,5.24700008 L2.66,8.428 C3.02377264,8.82668318 3.19542314,9.364278 3.13000002,9.89999962 L2.62400012,14 L6.132,12.3000003 C6.40262028,12.1689316 6.6993108,12.100569 7,12.0999998 C7.28211764,12.1008594 7.5599048,12.169449 7.81000024,12.3000003 L11.3999998,13.895 L10.8940002,9.8440006 C10.8300486,9.30945624 11.0019896,8.773555 11.3649998,8.37600022 L14,5.24700008 L10.1900008,4.5 C9.90421782,4.45121964 9.6337332,4.3365203 9.39999984,4.165 C9.168054,3.9943778 8.97933764,3.77175484 8.84900016,3.51499988 Z" id="Vector-31"></path>
                        </g>
                    </g>
                </g>
            </g>
        </g>
    </g>
</svg>