<svg width="20" height="20" viewBox="0 0 20 20" xmlns="http://www.w3.org/2000/svg">
    <g fill="none" fill-rule="evenodd">
        <circle fill="#FFF" cx="10" cy="10" r="7"/>
        <path d="m14.3 7.063-5.6 6.4a.401.401 0 0 1-.286.137H8.4a.397.397 0 0 1-.282-.118l-2.4-2.4a.4.4 0 0 1 .566-.566l2.097 2.098 5.318-6.077a.4.4 0 0 1 .602.526M20 10c0-.766-.442-1.44-1.084-1.774a2.007 2.007 0 0 0 .323-2.052 2.006 2.006 0 0 0-1.68-1.224 2.005 2.005 0 0 0-.488-2.021 2.003 2.003 0 0 0-2.02-.487A2.006 2.006 0 0 0 13.825.76a2.009 2.009 0 0 0-2.052.323A2.008 2.008 0 0 0 10 0c-.766 0-1.44.442-1.774 1.084A2.007 2.007 0 0 0 6.174.761 2.004 2.004 0 0 0 4.95 2.44a2.003 2.003 0 0 0-2.021.488 2.005 2.005 0 0 0-.487 2.02A2.006 2.006 0 0 0 .76 6.175a2.007 2.007 0 0 0 .323 2.052A2.009 2.009 0 0 0 0 10c0 .766.442 1.44 1.084 1.774a2.007 2.007 0 0 0-.323 2.052c.293.708.958 1.16 1.681 1.224-.219.69-.056 1.479.487 2.021a2.005 2.005 0 0 0 2.021.487 2.005 2.005 0 0 0 1.224 1.681c.71.293 1.499.143 2.052-.324A2.008 2.008 0 0 0 10 20c.766 0 1.44-.442 1.774-1.085a2.01 2.01 0 0 0 2.052.324 2.007 2.007 0 0 0 1.224-1.68c.692.219 1.479.054 2.021-.488.543-.542.706-1.33.487-2.021a2.006 2.006 0 0 0 1.681-1.224 2.007 2.007 0 0 0-.323-2.052A2.008 2.008 0 0 0 20 10" fill="#FF7606" fill-rule="nonzero"/>
    </g>
</svg>
