<svg width="18" height="11" viewBox="0 0 18 11" xmlns="http://www.w3.org/2000/svg">
    <path d="M9 11C5.56 11 2.442 9.071.14 5.938a.745.745 0 0 1 0-.872C2.443 1.929 5.56 0 9 0c3.44 0 6.558 1.929 8.86 5.062a.745.745 0 0 1 0 .872C15.557 9.071 12.44 11 9 11zm.247-9.373C6.964 1.48 5.079 3.409 5.222 5.753c.118 1.933 1.646 3.5 3.531 3.62 2.283.147 4.168-1.782 4.025-4.126-.122-1.929-1.65-3.495-3.531-3.62zm-.114 1.79c-1.23-.08-2.247.958-2.166 2.219.063 1.042.888 1.884 1.904 1.952 1.23.079 2.246-.96 2.165-2.22-.066-1.046-.89-1.888-1.903-1.952z" fill="#000" fill-rule="nonzero" opacity=".25"/>
</svg>
