<svg width="42" height="42" viewBox="0 0 42 42" xmlns="http://www.w3.org/2000/svg">
    <defs>
        <linearGradient x1="50%" y1="100%" x2="50%" y2="1.42%" id="rsb9so1eva">
            <stop stop-color="#FF7606" offset="0%"/>
            <stop stop-color="#FFD2AE" offset="100%"/>
        </linearGradient>
        <linearGradient x1="50%" y1="100%" x2="50%" y2="1.42%" id="cgn49bqj1b">
            <stop stop-color="#FF7606" offset="0%"/>
            <stop stop-color="#FFD2AE" offset="100%"/>
        </linearGradient>
        <linearGradient x1="50%" y1="100%" x2="50%" y2="1.42%" id="qy1lro93fc">
            <stop stop-color="#FF7606" offset="0%"/>
            <stop stop-color="#FFD2AE" offset="100%"/>
        </linearGradient>
    </defs>
    <g fill-rule="nonzero" fill="none">
        <path d="M16.302 15.544h-.507a5.515 5.515 0 0 0-5.503 5.26h11.513a5.515 5.515 0 0 0-5.503-5.26z" fill="url(#rsb9so1eva)"/>
        <path d="M35.36 0H6.64C2.979 0 0 3.221 0 7.18v18.134c0 3.96 2.979 7.18 6.64 7.18h8.623l4.64 8.843a1.238 1.238 0 0 0 2.193 0l4.641-8.843h8.623c3.661 0 6.64-3.22 6.64-7.18V7.18C42 3.221 39.021 0 35.36 0zM22.058 23.28H10.04a2.23 2.23 0 0 1-2.228-2.228c0-3.312 2.027-6.159 4.906-7.366a4.694 4.694 0 0 1-1.378-3.325 4.715 4.715 0 0 1 4.71-4.709 4.715 4.715 0 0 1 4.71 4.71 4.694 4.694 0 0 1-1.379 3.324c2.879 1.207 4.906 4.054 4.906 7.366 0 1.228-1 2.228-2.228 2.228zm10.711-2.044c0 .524-.639.786-1.278.786-.638 0-1.277-.262-1.277-.786v-8.339l-.476.295a.745.745 0 0 1-.41.131c-.474 0-.802-.508-.802-1.016 0-.344.147-.671.475-.868l2.163-1.31a.89.89 0 0 1 .475-.115c.524 0 1.13.311 1.13.803v10.419z" fill="url(#cgn49bqj1b)"/>
        <path d="M16.049 12.595a2.236 2.236 0 0 0 2.234-2.234 2.236 2.236 0 0 0-2.234-2.233 2.236 2.236 0 0 0-2.234 2.233 2.236 2.236 0 0 0 2.234 2.234z" fill="url(#qy1lro93fc)"/>
    </g>
</svg>
