<svg width="41" height="35" viewBox="0 0 41 35" xmlns="http://www.w3.org/2000/svg">
    <defs>
        <linearGradient x1="50%" y1="99.768%" x2="50%" y2="0%" id="a">
            <stop stop-color="#FABE98" offset="0%"/>
            <stop stop-color="#FFE3C8" offset="100%"/>
        </linearGradient>
        <linearGradient x1="50%" y1="99.768%" x2="50%" y2="0%" id="b">
            <stop stop-color="#FABE98" offset="0%"/>
            <stop stop-color="#FFE3C8" offset="100%"/>
        </linearGradient>
        <linearGradient x1="50%" y1="100%" x2="50%" y2="1.42%" id="c">
            <stop stop-color="#FF7606" offset="0%"/>
            <stop stop-color="#FFD2AE" offset="100%"/>
        </linearGradient>
        <linearGradient x1="50%" y1="100%" x2="50%" y2="1.42%" id="d">
            <stop stop-color="#FF7606" offset="0%"/>
            <stop stop-color="#FFD2AE" offset="100%"/>
        </linearGradient>
    </defs>
    <g fill-rule="nonzero" fill="none">
        <path d="M22.077 1.147c0-.634-.47-1.147-1.051-1.147s-1.052.513-1.052 1.147v4.912c0 .634.471 1.147 1.052 1.147.58 0 1.05-.513 1.05-1.147V1.147z" fill="url(#a)"/>
        <path d="M13.603 7.871c.248.243.573.364.898.364.324 0 .649-.121.897-.364a1.225 1.225 0 0 0 0-1.757l-2.719-2.662a1.288 1.288 0 0 0-1.794 0 1.224 1.224 0 0 0 0 1.758l2.718 2.661zM25.448 8.235c.325 0 .65-.121.898-.364l2.718-2.662a1.225 1.225 0 0 0 0-1.757 1.288 1.288 0 0 0-1.794 0L24.55 6.114a1.224 1.224 0 0 0 0 1.757c.248.243.573.364.897.364z" fill="url(#b)"/>
        <path d="m17.621 11.622-.037.029-5.375 4.292a2.878 2.878 0 0 1-1.79.616h-3.85C2.94 16.56 0 19.294 0 22.677v11.165C0 34.482.557 35 1.243 35h10.653c.687 0 1.243-.519 1.243-1.158v-10.63l6.326-5.051a1.32 1.32 0 0 0 .51-1.031v-4.446c0-1.13-1.41-1.774-2.354-1.062zM34.432 16.56h-3.85c-.657 0-1.293-.22-1.791-.617l-5.375-4.292-.037-.029c-.943-.712-2.353-.069-2.353 1.062v4.446c0 .396.185.773.509 1.03l6.326 5.052v10.63c0 .64.556 1.158 1.243 1.158h10.653c.686 0 1.243-.518 1.243-1.158V22.678c0-3.384-2.94-6.118-6.568-6.118z" fill="url(#c)"/>
        <path d="M11.564 11.323c0-2.838-2.358-5.147-5.256-5.147-2.899 0-5.257 2.31-5.257 5.147 0 2.839 2.358 5.148 5.257 5.148 2.898 0 5.256-2.31 5.256-5.148zM34.692 6.176c-2.898 0-5.256 2.31-5.256 5.147 0 2.839 2.358 5.148 5.256 5.148 2.899 0 5.257-2.31 5.257-5.148 0-2.838-2.358-5.147-5.257-5.147z" fill="url(#d)"/>
    </g>
</svg>
