<svg width="39" height="44" viewBox="0 0 39 44" xmlns="http://www.w3.org/2000/svg">
    <defs>
        <linearGradient x1="50%" y1="99.768%" x2="50%" y2="0%" id="a">
            <stop stop-color="#FABE98" offset="0%"/>
            <stop stop-color="#FFE3C8" offset="100%"/>
        </linearGradient>
        <linearGradient x1="50%" y1="100%" x2="50%" y2="1.42%" id="b">
            <stop stop-color="#FF7606" offset="0%"/>
            <stop stop-color="#FFD2AE" offset="100%"/>
        </linearGradient>
    </defs>
    <g fill-rule="nonzero" fill="none">
        <path d="m38.345 24.077-15.25-8.771L16.437 15 .655 24.077A1.31 1.31 0 0 0 0 25.213L1.993 41l35.534-.314L39 25.213c0-.47-.25-.904-.655-1.136z" fill="url(#a)"/>
        <path d="M18.831 35.868 0 24.664v18.047C0 43.423.582 44 1.3 44h36.4c.718 0 1.3-.577 1.3-1.29V24.665L20.169 35.868a1.31 1.31 0 0 1-1.338 0zm8.469.398h5.2c.718 0 1.3.577 1.3 1.289s-.582 1.289-1.3 1.289h-5.2c-.718 0-1.3-.577-1.3-1.29 0-.711.582-1.288 1.3-1.288zM15.34 23.93c.645.544 1.31 1.107 2.008 1.707a1.304 1.304 0 0 0 1.704 0c.698-.6 1.364-1.163 2.007-1.707 4.333-3.662 7.463-6.308 7.463-10.06 0-3.335-2.39-6.136-5.798-6.136-1.667 0-3.23.735-4.524 2.1-1.294-1.365-2.857-2.1-4.524-2.1-3.404 0-5.798 2.796-5.798 6.136 0 3.752 3.13 6.398 7.463 10.06zM31.83 10.514a1.307 1.307 0 0 0 1.342 0C37.257 8.073 39 6.162 39 4.125 39 1.966 37.086 0 34.984 0c-.925 0-1.78.293-2.484.831A4.045 4.045 0 0 0 30.016 0C27.914 0 26 1.966 26 4.125c0 2.037 1.743 3.948 5.829 6.39z" fill="url(#b)"/>
    </g>
</svg>
