<svg width="44" height="42" viewBox="0 0 44 42" xmlns="http://www.w3.org/2000/svg" xmlns:xlink="http://www.w3.org/1999/xlink">
    <defs>
        <linearGradient x1="50%" y1="100%" x2="50%" y2="1.42%" id="qe7nfmudhb">
            <stop stop-color="#FF7606" offset="0%"/>
            <stop stop-color="#FFD2AE" offset="100%"/>
        </linearGradient>
        <path id="12olfuh37a" d="M0 0h44v42H0z"/>
    </defs>
    <g fill="none" fill-rule="evenodd">
        <mask id="vjqo7t1a3c" fill="#fff">
            <use xlink:href="#12olfuh37a"/>
        </mask>
        <path d="M40.668 27.96c1.457-.241 2.513-1.538 2.513-3.001 0-1.202-.688-2.251-1.694-2.745-.133-.065-.11-.258.037-.284 1.323-.238 2.454-1.388 2.476-2.921.023-1.688-1.448-3.07-3.129-3.07-9.113 0-7.05 0-11.438-.002a.18.18 0 0 1-.159-.26c.232-.475 2.003-4.886 2.177-5.385 1.6-4.576-.257-8.26-.257-8.26-1.011-2.936-5.132-2.62-5.169.493-.03 2.364.308 4.314-1.077 5.798-1.399 1.483-4.363 4.262-5.477 6.053-1.83 2.956-2.886 5.04-2.891 8.522v15.46c0 1.556 1.155 1.55 1.16 1.556l20.386-.006h.004c.985 0 1.894-.32 2.406-1.127 1.15-1.809.447-3.702-.951-4.491-.13-.074-.086-.267.063-.284a3.044 3.044 0 0 0 2.687-3.03 3.036 3.036 0 0 0-1.705-2.732c-.13-.063-.104-.261.038-.285m-26.442-9.732c-.541 1.369-.834 2.795-.845 4.59v17.63c0 .69.228 1.072.481 1.285.108.091.04.268-.1.268H1.222C.549 42 0 41.41 0 40.672L1.603 19.34c.005-.731.549-1.322 1.223-1.322h11.259c.108 0 .18.11.14.21" fill="url(#qe7nfmudhb)" mask="url(#vjqo7t1a3c)"/>
    </g>
</svg>
