<svg width="31" height="50" viewBox="0 0 31 50" xmlns="http://www.w3.org/2000/svg">
    <defs>
        <linearGradient x1="50%" y1="100%" x2="50%" y2="1.42%" id="ejh9zqmewa">
            <stop stop-color="#FF7606" offset="0%"/>
            <stop stop-color="#FFD2AE" offset="100%"/>
        </linearGradient>
        <linearGradient x1="50%" y1="100%" x2="50%" y2="1.42%" id="v1aotl365b">
            <stop stop-color="#FF7606" offset="0%"/>
            <stop stop-color="#FFD2AE" offset="100%"/>
        </linearGradient>
        <linearGradient x1="50%" y1="100%" x2="50%" y2="1.42%" id="ilzu78nxwc">
            <stop stop-color="#FF7606" offset="0%"/>
            <stop stop-color="#FFD2AE" offset="100%"/>
        </linearGradient>
    </defs>
    <g fill-rule="nonzero" fill="none">
        <path d="M30.959 43H.043c-.024 0-.043.018-.043.04v3.024C0 48.238 1.875 50 4.19 50h22.62c2.315 0 4.19-1.762 4.19-3.936V43.04c0-.022-.018-.04-.041-.04zm-13.795 4.71h-3.327c-.71 0-1.292-.54-1.292-1.214 0-.585.449-1.067 1.032-1.185.087-.015.174-.022.26-.022h3.327c.087 0 .174.007.26.022.584.118 1.033.6 1.033 1.185 0 .674-.583 1.215-1.293 1.215zM26.81 0H4.19C1.875 0 0 1.762 0 3.936V6.96c0 .022.019.04.043.04h30.914c.024 0 .043-.018.043-.04V3.936C31 1.762 29.124 0 26.81 0zM15.8 4.263a1.295 1.295 0 0 1-.994.452h-3.327c-.402 0-.764-.178-.993-.452-.19-.207-.3-.474-.3-.763 0-.674.584-1.215 1.293-1.215h3.327c.71 0 1.293.54 1.293 1.215 0 .289-.11.556-.3.763zm4.713 0a1.295 1.295 0 0 1-.993.452h-.142c-.402 0-.765-.178-.993-.452-.19-.207-.3-.474-.3-.763 0-.674.584-1.215 1.293-1.215h.142c.71 0 1.293.54 1.293 1.215 0 .289-.11.556-.3.763z" fill="url(#ejh9zqmewa)" transform="matrix(-1 0 0 1 31 0)"/>
        <path d="M10.08 12.876c-.802 0-1.453.647-1.453 1.444 0 .798.65 1.445 1.453 1.445.802 0 1.453-.647 1.453-1.445 0-.797-.65-1.444-1.453-1.444zM15.5 12.876c-.802 0-1.453.647-1.453 1.444 0 .798.65 1.445 1.453 1.445.802 0 1.453-.647 1.453-1.445 0-.797-.65-1.444-1.453-1.444z" fill="url(#v1aotl365b)" transform="matrix(-1 0 0 1 31 10)"/>
        <path d="M0 0v30h31V0H0zm15.5 23.631c-.75 0-1.501-.077-2.228-.23l-.225-.048-4.295 1.602a.598.598 0 0 1-.642-.156.577.577 0 0 1-.089-.651l1.254-2.493-.478-.397c-2.126-1.771-3.346-4.3-3.346-6.936 0-5.134 4.509-9.311 10.05-9.311 5.542 0 10.05 4.177 10.05 9.31 0 5.135-4.51 9.31-10.051 9.31z" fill="url(#ilzu78nxwc)" transform="matrix(-1 0 0 1 31 10)"/>
        <path d="M20.92 12.876c-.802 0-1.453.647-1.453 1.444 0 .798.65 1.445 1.453 1.445.802 0 1.453-.647 1.453-1.445 0-.797-.65-1.444-1.453-1.444z" fill="url(#v1aotl365b)" transform="matrix(-1 0 0 1 31 10)"/>
    </g>
</svg>
