<svg width="26" height="37" viewBox="0 0 26 37" xmlns="http://www.w3.org/2000/svg">
    <g fill="none" fill-rule="evenodd">
        <rect x=".45" y=".45" width="25.1" height="36.1" rx="2" fill="#FFF" stroke="#D6D6D6" stroke-width=".9"/>
        <path d="M16.5 15.667c-.06 0-.12.001-.18.004.117-.38.177-.774.18-1.171a3.5 3.5 0 0 0-7 0c.003.397.063.792.18 1.171a3.5 3.5 0 1 0-.18 6.996 3.883 3.883 0 0 0 2.17-.697c-.148.812-.424 1.402-.706 1.691-.063.064-.185.172-.297.172a.583.583 0 0 0 0 1.167h4.666a.583.583 0 1 0 0-1.167c-.091 0-.21-.069-.331-.194-.292-.299-.578-.886-.734-1.68a4.074 4.074 0 0 0 2.232.708 3.5 3.5 0 0 0 0-7zM5.25 10l-.038.001a.876.876 0 0 0 .038-.251.75.75 0 0 0-1.5 0c0 .085.013.17.038.251a.832.832 0 0 0 .427 1.35c-.032.174-.09.3-.151.362-.014.014-.04.037-.064.037A.125.125 0 1 0 4 12h1a.125.125 0 0 0 0-.25c-.02 0-.045-.015-.071-.042a.739.739 0 0 1-.157-.36.873.873 0 0 0 .478.152.75.75 0 0 0 0-1.5zM22.25 27l-.038-.001a.876.876 0 0 1 .038.251.75.75 0 0 1-1.5 0c0-.085.013-.17.038-.251a.832.832 0 0 1 .427-1.35c-.032-.174-.09-.3-.151-.362-.014-.014-.04-.037-.064-.037a.125.125 0 1 1 0-.25h1a.125.125 0 0 1 0 .25c-.02 0-.045.015-.071.042a.739.739 0 0 0-.157.36.873.873 0 0 1 .478-.152.75.75 0 0 1 0 1.5zM5.193 8v-.397l-.606-.074V6.33l.627-.686c.109.13.221.294.339.49.117.198.263.459.437.782.202.376.36.651.473.824.112.173.204.259.275.259H8v-.397l-.331-.074c-.052-.022-.127-.104-.226-.246a16.912 16.912 0 0 1-.437-.676 24.577 24.577 0 0 0-.67-1.026 3.38 3.38 0 0 0-.522-.61l1.368-1.466.585-.088V3H5.863v.417l.578.088-1.854 2.194V3.505l.543-.088V3H3.007v.417l.55.088v4.024L3 7.596V8h2.193zM20.807 34v-.397l.606-.074V32.33l-.627-.686a3.88 3.88 0 0 0-.339.49 21.65 21.65 0 0 0-.437.782c-.202.376-.36.651-.473.824-.112.173-.204.259-.275.259H18v-.397l.331-.074c.052-.022.127-.104.226-.246.099-.141.245-.366.437-.676.264-.422.487-.764.67-1.026a3.38 3.38 0 0 1 .522-.61l-1.368-1.466-.585-.088V29h1.904v.417l-.578.088 1.854 2.194v-2.194l-.543-.088V29h2.123v.417l-.55.088v4.024l.557.067V34h-2.193z" fill="#000" fill-rule="nonzero"/>
    </g>
</svg>
