<svg width="26" height="37" viewBox="0 0 26 37" xmlns="http://www.w3.org/2000/svg">
    <g fill="none" fill-rule="evenodd">
        <rect x=".45" y=".45" width="25.1" height="36.1" rx="2" fill="#FFF" stroke="#D6D6D6" stroke-width=".9"/>
        <path d="M5.193 8v-.397l-.606-.074V6.33l.627-.686c.109.13.221.294.339.49.117.198.263.459.437.782.202.376.36.651.473.824.112.173.204.259.275.259H8v-.397l-.331-.074c-.052-.022-.127-.104-.226-.246a16.912 16.912 0 0 1-.437-.676 24.577 24.577 0 0 0-.67-1.026 3.38 3.38 0 0 0-.522-.61l1.368-1.466.585-.088V3H5.863v.417l.578.088-1.854 2.194V3.505l.543-.088V3H3.007v.417l.55.088v4.024L3 7.596V8h2.193zM20.807 34v-.397l.606-.074V32.33l-.627-.686a3.88 3.88 0 0 0-.339.49 21.65 21.65 0 0 0-.437.782c-.202.376-.36.651-.473.824-.112.173-.204.259-.275.259H18v-.397l.331-.074c.052-.022.127-.104.226-.246.099-.141.245-.366.437-.676.264-.422.487-.764.67-1.026a3.38 3.38 0 0 1 .522-.61l-1.368-1.466-.585-.088V29h1.904v.417l-.578.088 1.854 2.194v-2.194l-.543-.088V29h2.123v.417l-.55.088v4.024l.557.067V34h-2.193z" fill="#FF7606" fill-rule="nonzero"/>
        <g fill="#FF7606" fill-rule="nonzero">
            <path d="M4.5 10 6 11.5 4.5 13 3 11.5z"/>
        </g>
        <g fill="#FF7606" fill-rule="nonzero">
            <path d="m21.5 25 1.5 1.5-1.5 1.5-1.5-1.5z"/>
        </g>
        <g fill="#FF7606" fill-rule="nonzero">
            <path d="m13 12 6 7-6 7-6-7z"/>
        </g>
    </g>
</svg>
