<svg width="26" height="37" viewBox="0 0 26 37" xmlns="http://www.w3.org/2000/svg">
    <g fill="none" fill-rule="evenodd">
        <rect x=".45" y=".45" width="25.1" height="36.1" rx="2" fill="#FFF" stroke="#D6D6D6" stroke-width=".9"/>
        <path d="M18.048 14.076a3.184 3.184 0 0 0-2.4-1.076c-.693 0-1.327.226-1.886.67-.282.225-.537.5-.762.82a3.923 3.923 0 0 0-.762-.82 2.962 2.962 0 0 0-1.886-.67c-.926 0-1.779.382-2.4 1.076C7.338 14.763 7 15.7 7 16.716c0 1.045.378 2.003 1.19 3.012.727.903 1.77 1.82 2.98 2.881.412.363.88.774 1.366 1.211a.692.692 0 0 0 .928 0c.486-.437.954-.848 1.367-1.211 1.209-1.061 2.253-1.978 2.979-2.881.812-1.01 1.19-1.967 1.19-3.012 0-1.016-.338-1.953-.952-2.64zM5.762 10.294a.769.769 0 0 0-.6-.294.704.704 0 0 0-.471.183 1.04 1.04 0 0 0-.191.224 1.04 1.04 0 0 0-.19-.224.703.703 0 0 0-.472-.183.769.769 0 0 0-.6.294 1.133 1.133 0 0 0-.238.72c0 .285.095.546.298.82.181.247.442.497.744.787.104.099.22.21.342.33A.165.165 0 0 0 4.5 13a.165.165 0 0 0 .116-.049c.121-.12.238-.231.342-.33.302-.29.563-.54.744-.786.203-.275.298-.536.298-.822 0-.277-.085-.532-.238-.72zM22.762 26.706a.769.769 0 0 1-.6.294.704.704 0 0 1-.471-.183 1.04 1.04 0 0 1-.191-.224 1.04 1.04 0 0 1-.19.224.703.703 0 0 1-.472.183.769.769 0 0 1-.6-.294 1.133 1.133 0 0 1-.238-.72c0-.285.095-.546.298-.82.181-.247.442-.497.744-.787.104-.099.22-.21.342-.33A.165.165 0 0 1 21.5 24c.043 0 .084.017.116.049.121.12.238.231.342.33.302.29.563.54.744.786.203.275.298.536.298.822 0 .277-.085.532-.238.72zM3.749 8v-.402l-.554-.06.267-.877H5.23l.266.87-.512.067V8H7v-.402l-.396-.067L5.026 3H3.981L2.41 7.531 2 7.598 2.007 8h1.742zm1.345-1.807H3.592l.607-2.055.13-.529.123.522.642 2.062zM20.749 29v.402l-.554.06.267.877h1.769l.266-.87-.512-.067V29H24v.402l-.396.067L22.026 34h-1.045l-1.571-4.531-.41-.067.007-.402h1.742zm1.345 1.807h-1.502l.607 2.055.13.529.123-.522.642-2.062z" fill="#FF7606" fill-rule="nonzero"/>
    </g>
</svg>
