<svg width="26" height="37" viewBox="0 0 26 37" xmlns="http://www.w3.org/2000/svg">
    <g fill="none" fill-rule="evenodd">
        <path d="M.45.45h25.1v36.1H.45z" fill="#FFF" stroke="#D6D6D6" stroke-width=".9"/>
        <g fill="#000" fill-rule="nonzero">
            <path d="M10.623 22c1.239 0 2.297-.855 2.878-1.444.582.59 1.638 1.444 2.876 1.444C18.51 22 20 20.56 20 18.499c0-2.272-1.85-3.741-3.64-5.161-.844-.671-1.72-1.364-2.39-2.135a.6.6 0 0 0-.452-.203h-.034a.603.603 0 0 0-.452.203c-.672.77-1.546 1.463-2.391 2.134C8.85 14.757 7 16.225 7 18.498 7 20.56 8.49 22 10.623 22z"/>
            <path d="M11 25a14.946 14.946 0 0 1 5 0c-1.654-2.386-2.5-7-2.5-7s-.833 4.614-2.5 7z"/>
        </g>
        <g fill="#000" fill-rule="nonzero">
            <path d="M3.836 11.357c.286 0 .53-.183.664-.31.135.127.378.31.664.31.492 0 .836-.308.836-.75 0-.487-.427-.802-.84-1.106-.195-.144-.397-.292-.552-.457A.143.143 0 0 0 4.504 9h-.008a.144.144 0 0 0-.104.044c-.155.164-.357.313-.552.457-.413.304-.84.619-.84 1.106 0 .442.344.75.836.75z"/>
            <path d="M3.923 12a3.71 3.71 0 0 1 1.154 0c-.382-.511-.577-1.5-.577-1.5s-.192.989-.577 1.5z"/>
        </g>
        <g fill="#000" fill-rule="nonzero">
            <path d="M22.164 25.643c-.286 0-.53.183-.664.31-.135-.127-.378-.31-.664-.31-.492 0-.836.308-.836.75 0 .487.427.802.84 1.106.195.144.397.292.552.457a.143.143 0 0 0 .104.044h.008c.04 0 .078-.016.104-.044.155-.164.357-.313.552-.457.413-.304.84-.619.84-1.106 0-.442-.344-.75-.836-.75z"/>
            <path d="M22.077 25a3.71 3.71 0 0 1-1.154 0c.382.511.577 1.5.577 1.5s.192-.989.577-1.5z"/>
        </g>
        <g fill="#000" fill-rule="nonzero">
            <path d="M10.623 22c1.239 0 2.297-.855 2.878-1.444.582.59 1.638 1.444 2.876 1.444C18.51 22 20 20.56 20 18.499c0-2.272-1.85-3.741-3.64-5.161-.844-.671-1.72-1.364-2.39-2.135a.6.6 0 0 0-.452-.203h-.034a.603.603 0 0 0-.452.203c-.672.77-1.546 1.463-2.391 2.134C8.85 14.757 7 16.225 7 18.498 7 20.56 8.49 22 10.623 22z"/>
            <path d="M11 25a14.946 14.946 0 0 1 5 0c-1.654-2.386-2.5-7-2.5-7s-.833 4.614-2.5 7z"/>
        </g>
        <path d="M3.749 8v-.402l-.554-.06.267-.877H5.23l.266.87-.512.067V8H7v-.402l-.396-.067L5.026 3H3.981L2.41 7.531 2 7.598 2.007 8h1.742zm1.345-1.807H3.592l.607-2.055.13-.529.123.522.642 2.062zM20.749 29v.402l-.554.06.267.877h1.769l.266-.87-.512-.067V29H24v.402l-.396.067L22.026 34h-1.045l-1.571-4.531-.41-.067.007-.402h1.742zm1.345 1.807h-1.502l.607 2.055.13.529.123-.522.642-2.062z" fill="#000" fill-rule="nonzero"/>
    </g>
</svg>
