<svg width="40" height="32" viewBox="0 0 40 32" xmlns="http://www.w3.org/2000/svg">
    <g fill="#FF7606" fill-rule="nonzero">
        <path d="M10.88 19.393C13.583 16.56 17 15 20.5 15c3.5 0 6.917 1.56 9.62 4.393 2.43 2.546 3.88 5.755 3.88 8.584 0 1.374-.484 2.42-1.438 3.111-.942.682-2.186.912-3.574.912-1.476 0-3.116-.261-4.726-.517-1.408-.225-2.737-.436-3.762-.436-.884 0-2.131.2-3.451.413-3.085.497-6.582 1.06-8.602-.397C7.487 30.37 7 29.332 7 27.977c0-2.829 1.45-6.038 3.88-8.584zM10.197 2.374C11.038.865 12.242 0 13.5 0s2.462.865 3.303 2.374C17.575 3.76 18 5.581 18 7.5c0 1.92-.425 3.74-1.197 5.126C15.962 14.135 14.758 15 13.5 15s-2.462-.865-3.303-2.374C9.425 11.24 9 9.419 9 7.5c0-1.92.425-3.74 1.197-5.126zM23.197 2.374C24.038.865 25.242 0 26.5 0s2.462.865 3.303 2.374C30.575 3.76 31 5.581 31 7.5c0 1.92-.425 3.74-1.197 5.126C28.962 14.135 27.758 15 26.5 15s-2.462-.865-3.303-2.374C22.425 11.24 22 9.419 22 7.5c0-1.92.425-3.74 1.197-5.126zM.234 13.472c.399-1.118 1.254-1.93 2.407-2.287.928-.287 1.976-.239 2.95.137a5.414 5.414 0 0 1 3.011 2.933c.467 1.1.525 2.262.164 3.273-.399 1.118-1.254 1.93-2.407 2.287-.4.124-.82.185-1.249.185a4.744 4.744 0 0 1-1.702-.322 5.414 5.414 0 0 1-3.01-2.932c-.467-1.1-.525-2.263-.164-3.274zM31.398 14.254a5.414 5.414 0 0 1 3.01-2.932c.975-.376 2.023-.424 2.95-.137 1.154.357 2.01 1.169 2.408 2.287.36 1.011.303 2.174-.164 3.273a5.414 5.414 0 0 1-3.01 2.933 4.744 4.744 0 0 1-1.703.322c-.428 0-.849-.061-1.248-.185-1.153-.357-2.008-1.17-2.407-2.287-.36-1.011-.303-2.174.164-3.274z"/>
    </g>
</svg>
