<svg width="19" height="16" viewBox="0 0 19 16" xmlns="http://www.w3.org/2000/svg">
    <g fill="#D4D4D4" fill-rule="nonzero">
        <path d="M5.168 9.696C6.452 8.28 8.075 7.5 9.738 7.5c1.662 0 3.285.78 4.57 2.196 1.153 1.274 1.842 2.878 1.842 4.293 0 .687-.23 1.21-.683 1.555-.448.34-1.038.456-1.698.456-.7 0-1.48-.13-2.245-.259-.668-.112-1.3-.218-1.787-.218-.42 0-1.012.1-1.639.207-1.465.249-3.126.53-4.086-.198-.456-.347-.687-.866-.687-1.543 0-1.415.689-3.02 1.843-4.293zM4.844 1.187C5.244.433 5.814 0 6.412 0c.598 0 1.17.433 1.57 1.187.366.693.568 1.603.568 2.563 0 .96-.202 1.87-.569 2.563-.4.754-.97 1.187-1.569 1.187-.597 0-1.169-.433-1.568-1.187-.367-.693-.569-1.603-.569-2.563 0-.96.202-1.87.569-2.563zM11.019 1.187c.4-.754.97-1.187 1.569-1.187.597 0 1.169.433 1.568 1.187.367.693.569 1.603.569 2.563 0 .96-.202 1.87-.569 2.563-.4.754-.97 1.187-1.569 1.187-.597 0-1.169-.433-1.568-1.187-.367-.693-.569-1.603-.569-2.563 0-.96.202-1.87.569-2.563zM.111 6.736c.19-.559.596-.965 1.144-1.144a2.05 2.05 0 0 1 1.4.069c.639.259 1.16.793 1.431 1.466.222.55.25 1.131.078 1.637-.19.559-.596.965-1.144 1.144-.19.061-.39.092-.593.092-.269 0-.544-.054-.808-.161a2.638 2.638 0 0 1-1.43-1.466c-.222-.55-.25-1.132-.078-1.637zM14.914 7.127a2.638 2.638 0 0 1 1.43-1.466 2.05 2.05 0 0 1 1.401-.069c.548.179.954.585 1.144 1.144.171.505.144 1.087-.078 1.637a2.638 2.638 0 0 1-1.43 1.466 2.154 2.154 0 0 1-.809.161c-.203 0-.403-.03-.592-.092a1.766 1.766 0 0 1-1.144-1.144c-.171-.505-.144-1.087.078-1.637z"/>
    </g>
</svg>
