<?xml version="1.0" encoding="UTF-8"?>
<svg width="42px" height="39px" viewBox="0 0 42 39" version="1.1" xmlns="http://www.w3.org/2000/svg" xmlns:xlink="http://www.w3.org/1999/xlink">
    <title>Group</title>
    <g id="01.-Today-(오늘의-집사)" stroke="none" stroke-width="1" fill="none" fill-rule="evenodd">
        <g id="10.-메인" transform="translate(-227.000000, -1329.000000)" fill="#161719">
            <g id="Group-14" transform="translate(47.000000, 1329.000000)">
                <g id="Group" transform="translate(180.000000, 0.000000)">
                    <g id="Group-3">
                        <g id="Group-2" transform="translate(22.428802, 0.000000)">
                            <path d="M10.5565642,6.38273921 C10.5565642,9.9083725 8.3098305,12.7654784 5.53705196,12.7654784 C2.76494269,12.7654784 0.517539767,9.9083725 0.517539767,6.38273921 C0.517539767,2.85784381 2.76494269,0 5.53705196,0 C8.3098305,0 10.5565642,2.85784381 10.5565642,6.38273921 Z" id="Stroke-3"></path>
                            <path d="M19.1614422,14.8930582 C19.1614422,17.6348795 17.235446,19.8574109 14.8590032,19.8574109 C12.4825603,19.8574109 10.5565642,17.6348795 10.5565642,14.8930582 C10.5565642,12.1512368 12.4825603,9.92870544 14.8590032,9.92870544 C17.235446,9.92870544 19.1614422,12.1512368 19.1614422,14.8930582 Z" id="Stroke-7"></path>
                        </g>
                        <g id="Group-2" transform="translate(10.427402, 10.243902) scale(-1, 1) translate(-10.427402, -10.243902) translate(0.695695, 0.000000)">
                            <path d="M10.1200848,6.38273921 C10.1200848,9.9083725 7.87335118,12.7654784 5.10057264,12.7654784 C2.32846337,12.7654784 0.0810604454,9.9083725 0.0810604454,6.38273921 C0.0810604454,2.85784381 2.32846337,0 5.10057264,0 C7.87335118,0 10.1200848,2.85784381 10.1200848,6.38273921 Z" id="Stroke-3"></path>
                            <path d="M18.7249629,14.8930582 C18.7249629,17.6348795 16.7989667,19.8574109 14.4225239,19.8574109 C12.046081,19.8574109 10.1200848,17.6348795 10.1200848,14.8930582 C10.1200848,12.1512368 12.046081,9.92870544 14.4225239,9.92870544 C16.7989667,9.92870544 18.7249629,12.1512368 18.7249629,14.8930582 Z" id="Stroke-7"></path>
                        </g>
                    </g>
                    <path d="M22.325295,35.5758836 C22.0417304,35.2367677 21.4155509,35.0004842 20.6884936,35.0004842 C19.9602062,35.0004842 19.3334116,35.2373454 19.050462,35.577039 L18.8677751,35.7636394 C17.592657,37.1692084 15.6938197,38.0600375 13.5729287,38.0600375 C9.73219665,38.0600375 6.61913696,35.1356684 6.61913696,31.5290236 C6.61913696,27.9212233 11.2158362,16.5478424 20.5273355,16.5478424 C20.5833102,16.5478424 20.6319037,16.5588189 20.684803,16.5634406 C20.7370871,16.5588189 20.7862958,16.5478424 20.8422706,16.5478424 C30.1537698,16.5478424 34.750469,27.9212233 34.750469,31.5290236 C34.750469,35.1356684 31.6374094,38.0600375 27.7966774,38.0600375 C25.6807071,38.0600375 23.7855605,37.1726746 22.5104424,35.7728828 L22.325295,35.5758836 Z" id="Stroke-9"></path>
                </g>
            </g>
        </g>
    </g>
</svg>