<svg width="37" height="33" viewBox="0 0 37 33" xmlns="http://www.w3.org/2000/svg">
    <path d="M6.259 28.066c-.96 4.4 3.824 5.355 5.931 4.782 2.107-.573 6.405-.668 6.405-.668s4.31.095 6.418.668c2.107.577 6.895-.382 5.939-4.782-.956-4.4-5.17-4.209-6.326-10.14-1.151-5.932-6.035-5.55-6.035-5.55s-4.871-.382-6.023 5.55c-1.147 5.931-5.353 5.74-6.31 10.14zm7.915-16.076c-2.593.748-5.458-1.297-6.402-4.567-.944-3.267.39-6.52 2.984-7.269 2.593-.748 5.457 1.297 6.401 4.567.944 3.267-.39 6.52-2.983 7.269zM3.427 10.8c2.497-1.018 5.564.709 6.851 3.86 1.287 3.15.307 6.528-2.19 7.542-2.498 1.015-5.566-.708-6.852-3.859-1.287-3.15-.307-6.524 2.19-7.543zm19.61 1.19c-2.593-.748-3.928-4.002-2.984-7.269.944-3.266 3.812-5.31 6.402-4.563 2.589.748 3.927 4.002 2.983 7.269-.944 3.266-3.808 5.31-6.401 4.563zm6.083 10.212c-2.498-1.018-3.478-4.396-2.191-7.543 1.286-3.147 4.354-4.877 6.851-3.859 2.498 1.019 3.478 4.396 2.19 7.543-1.286 3.151-4.353 4.878-6.85 3.86z" fill="#CECECE" fill-rule="nonzero"/>
</svg>
