<?xml version="1.0" encoding="UTF-8"?>
<svg width="18px" height="6px" viewBox="0 0 18 6" version="1.1" xmlns="http://www.w3.org/2000/svg" xmlns:xlink="http://www.w3.org/1999/xlink">
    <title>icon_mymenu</title>
    <g id="Page-1" stroke="none" stroke-width="1" fill="none" fill-rule="evenodd">
        <g id="17.-집사의-자랑" transform="translate(-338.000000, -761.000000)">
            <g id="Group-8" transform="translate(0.000000, 728.000000)">
                <g id="icon_filter" transform="translate(335.000000, 24.000000)">
                    <rect id="Rectangle" x="0" y="0" width="24" height="24"></rect>
                    <g id="Vector" transform="translate(4.000000, 10.000000)" stroke="#B2B2B2" stroke-linecap="round" stroke-linejoin="round" stroke-width="1.5">
                        <path d="M4,2 C4,3.10456944 3.10456944,4 2,4 C0.89543052,4 0,3.10456944 0,2 C0,0.89543052 0.89543052,0 2,0 C2.53043292,0 3.0391408,0.21071368 3.4142136,0.58578648 C3.7892864,0.9608592 4,1.46956708 4,2 Z" id="Vector-11"></path>
                        <path d="M10,2 C10,3.10456944 9.10456944,4 8,4 C6.89543052,4 6,3.10456944 6,2 C6,0.89543052 6.89543052,0 8,0 C9.10456944,0 10,0.89543052 10,2 Z" id="Vector-12"></path>
                        <path d="M16,2 C16,3.10456944 15.1045694,4 14,4 C12.8954305,4 12,3.10456944 12,2 C12,0.89543052 12.8954305,0 14,0 C15.1045694,0 16,0.89543052 16,2 Z" id="Vector-13"></path>
                    </g>
                </g>
            </g>
        </g>
    </g>
</svg>