<?xml version="1.0" encoding="UTF-8"?>
<svg width="25px" height="20px" viewBox="0 0 25 20" version="1.1" xmlns="http://www.w3.org/2000/svg" xmlns:xlink="http://www.w3.org/1999/xlink">
    <title>icon_photo@1x</title>
    <g id="Page-1" stroke="none" stroke-width="1" fill="none" fill-rule="evenodd">
        <g id="7.-스토리-자기소개-등록_스토리" transform="translate(-330.000000, -35.000000)" fill="#161719" fill-rule="nonzero">
            <g id="icon_photo" transform="translate(330.000000, 35.000000)">
                <path d="M23.1778808,2.67434608 L16.5603127,2.67434608 L15.2240268,0.364242153 C15.0932943,0.138380207 14.8568044,1.18965578e-15 14.6013596,1.18965578e-15 L10.3985591,1.18965578e-15 C10.1431142,1.18965578e-15 9.90654297,0.138380207 9.77589186,0.364242153 L8.439606,2.67434608 L6.26808045,2.67434608 L6.26808045,2.16519399 C6.26808045,1.75340195 5.94364918,1.41954819 5.54347932,1.41954819 L2.86236565,1.41954819 C2.46211443,1.41954819 2.13776452,1.75340195 2.13776452,2.16519399 L2.13776452,2.67434608 L1.82211925,2.67434608 C0.815715229,2.67434608 0,3.51383593 0,4.54930161 L0,18.1249608 C0,19.1605102 0.815715229,20 1.8220379,20 L23.1778808,20 C24.1842034,20 25,19.1605102 25,18.1249608 L25,4.54930161 C25,3.51383593 24.1842034,2.67434608 23.1778808,2.67434608 Z M12.4999593,16.674187 C9.63555988,16.674187 7.31353337,14.2847217 7.31353337,11.3370475 C7.31353337,8.3895407 9.63555988,5.99999163 12.4999593,5.99999163 C15.3643588,5.99999163 17.6863853,8.3895407 17.6863853,11.3370475 C17.6863853,14.2847217 15.3643588,16.674187 12.4999593,16.674187 Z M22.0410697,6.53995069 L19.7705389,6.53995069 C19.370369,6.53995069 19.0459378,6.20609693 19.0459378,5.79422118 C19.0459378,5.38234543 19.370369,5.04849167 19.7705389,5.04849167 L22.0410697,5.04849167 C22.4414022,5.04849167 22.7657522,5.38234543 22.7657522,5.79422118 C22.7657522,6.20609693 22.4413209,6.53995069 22.0410697,6.53995069 Z" id="Shape"></path>
                <ellipse id="Oval" cx="12.4999593" cy="11.3370475" rx="3.62324971" ry="3.72848012"></ellipse>
            </g>
        </g>
    </g>
</svg>