<?xml version="1.0" encoding="UTF-8"?>
<svg width="20px" height="18px" viewBox="0 0 20 18" version="1.1" xmlns="http://www.w3.org/2000/svg" xmlns:xlink="http://www.w3.org/1999/xlink">
    <title>Vector</title>
    <g id="Symbols" stroke="none" stroke-width="1" fill="none" fill-rule="evenodd" stroke-linecap="round" stroke-linejoin="round">
        <g id="icon_shop" transform="translate(-2.000000, -3.000000)" stroke="#000000" stroke-width="1.5">
            <g id="Vector" transform="translate(3.000000, 4.000000)">
                <path d="M2.60067322,0.642893558 C1.93608383,0.644817151 1.35368333,1.08805071 1.17473532,1.72809783 L0.101102995,4.61854747 C-0.22343879,5.83898708 0.249733047,7.13211849 1.28531293,7.85487369 C2.07899033,8.4052273 3.09140508,8.53334189 3.99715648,8.19803956 C4.90290815,7.86273738 5.58785785,7.10627145 5.83185633,6.17177838 L6.04786854,4.62883351 L6.67404698,0.642893558 L2.60067322,0.642893558 Z" id="Vector-52"></path>
                <path d="M15.1949627,0.642893558 C15.859552,0.644817151 16.4419525,1.08805071 16.6209005,1.72809783 L17.8166824,4.43467965 C17.8739013,4.55801844 17.917033,4.68741431 17.9452611,4.82041606 C18.1706336,5.98617622 17.6884216,7.17533052 16.7147631,7.85487369 C15.9210852,8.4052273 14.9086712,8.53334189 14.0029195,8.19803956 C13.0971682,7.86273738 12.4122184,7.10627145 12.1682199,6.17177838 L11.9573509,4.61854747 L11.122875,0.642893558 L15.1949627,0.642893558 Z" id="Vector-53"></path>
                <path d="M6.67400956,0.642893558 L11.122833,0.642893558 M6.04268783,4.61854732 L6.02982996,5.36687542 C6.02982996,7.00512374 7.35789261,8.3331863 8.99614084,8.3331863 C10.634389,8.3331863 11.9624517,7.00512374 11.9624517,5.36687542 L11.9573084,4.61854732 M1.28527563,7.85487349 L1.21455734,13.469906 C1.20630849,14.1572607 1.47359551,14.8193065 1.95675618,15.308265 C2.43991688,15.7972237 3.09872729,16.072339 3.78613168,16.072339 L6.32684704,16.072339 M16.714721,7.85487349 L16.6144298,13.5007648 C16.6144298,14.9210059 15.4630967,16.072339 14.0428555,16.072339 L11.4712812,16.072339 M6.3281327,16.072339 L6.3281327,14.786552 C6.3281327,13.3663107 7.47946573,12.2149776 8.89970693,12.2149776 C10.3199481,12.2149776 11.4712812,13.3663107 11.4712812,14.786552 L11.4712812,16.072339 M6.3281327,16.072339 L11.4712812,16.072339" id="Vector-54"></path>
            </g>
        </g>
    </g>
</svg>