<?xml version="1.0" encoding="UTF-8"?>
<svg width="24px" height="24px" viewBox="0 0 24 24" version="1.1" xmlns="http://www.w3.org/2000/svg" xmlns:xlink="http://www.w3.org/1999/xlink">
    <title>icon_alarm</title>
    <g id="Symbols" stroke="none" stroke-width="1" fill="none" fill-rule="evenodd">
        <g id="header_menu" transform="translate(-335.000000, -13.000000)">
            <g id="icon_alarm" transform="translate(335.000000, 13.000000)">
                <rect id="Rectangle" fill="#FFFFFF" x="0" y="0" width="24" height="24"></rect>
                <g id="Vector" transform="translate(5.000000, 3.000000)" stroke="#000000" stroke-linecap="round" stroke-linejoin="round" stroke-width="1.5">
                    <path d="M4.96549854,0.620680024 L8.68957868,0.620680024 M3.67696681,14.93232 C3.70012197,16.6492849 5.11056872,18.0224978 6.82753861,17.9997208 C8.54450849,18.0224978 9.95495528,16.6492849 9.97811041,14.93232 M3.67572552,14.93232 L2.27547143,14.93232 C1.00947108,14.9220757 -0.00888907666,13.8881593 0,12.622149 C0,11.5372007 0.752322725,10.6012146 0.917423639,9.52867942 C1.02169793,8.85462129 1.09617946,8.17311457 1.1656956,7.79077568 C1.56603476,4.93834446 3.94946604,2.78066252 6.82753907,2.66520002 C9.70439597,2.78035874 12.0874039,4.9360905 12.4893824,7.78705138 C12.557657,8.17311457 12.6333794,8.85462129 12.7376537,9.52495586 C12.9027547,10.5974903 13.6550871,11.5334764 13.6550871,12.6184247 C13.6646553,13.8849177 12.646095,14.9195941 11.3796062,14.9298372 L9.97811082,14.9298372 M3.67572569,14.9298373 L9.97811066,14.9298373" id="Vector-5"></path>
                </g>
            </g>
        </g>
    </g>
</svg>