<?xml version="1.0" encoding="UTF-8"?>
<svg width="20px" height="20px" viewBox="0 0 20 20" version="1.1" xmlns="http://www.w3.org/2000/svg" xmlns:xlink="http://www.w3.org/1999/xlink">
    <title>Group 6</title>
    <g id="Page-1" stroke="none" stroke-width="1" fill="none" fill-rule="evenodd">
        <g id="14.-집사의-모임-상세_참여자" transform="translate(-20.000000, -542.000000)">
            <g id="Group" transform="translate(0.000000, 495.000000)">
                <g id="Group-10" transform="translate(0.000000, 43.000000)">
                    <g id="Group-6" transform="translate(20.000000, 4.000000)">
                        <rect id="Rectangle" fill="#FFFFFF" x="0" y="0" width="20" height="20"></rect>
                        <g id="Vector" transform="translate(3.157895, 3.684211)" fill="#B2B2B2" stroke="#B2B2B2" stroke-linecap="round" stroke-linejoin="round">
                            <path d="M6.80599271,12.6315789 L3.96388141,9.71459874 L1.14413414,6.79761853 C-0.381378064,5.18549381 -0.381378064,2.66232177 1.14413414,1.05019642 C1.89111533,0.332292429 2.90286297,-0.0428662168 3.93730903,0.0144800716 C4.97175496,0.0718263575 5.93583521,0.556518442 6.59888641,1.35258998 L6.80599271,1.55580619 L7.01115303,1.34383907 C7.67420424,0.547767499 8.63828503,0.0630754232 9.67273164,0.0057291312 C10.7071767,-0.0516171537 11.7189249,0.323541486 12.465906,1.04144552 C13.9914178,2.65357074 13.9914178,5.17674278 12.465906,6.78886787 L9.64615804,9.70584758 L6.80599271,12.6315789 Z" id="vector-18"></path>
                        </g>
                    </g>
                </g>
            </g>
        </g>
    </g>
</svg>