<?xml version="1.0" encoding="UTF-8"?>
<svg width="18px" height="22px" viewBox="0 0 18 22" version="1.1" xmlns="http://www.w3.org/2000/svg" xmlns:xlink="http://www.w3.org/1999/xlink">
    <title>Vector</title>
    <g id="Page-1" stroke="none" stroke-width="1" fill="none" fill-rule="evenodd" stroke-linecap="round" stroke-linejoin="round">
        <g id="15-2.-집사의-모임-상세_모임장_참가신청-확인" transform="translate(-75.000000, -138.000000)" stroke="#FFFFFF" stroke-width="1.5">
            <g id="Group-4" transform="translate(0.000000, 70.000000)">
                <g id="Vector" transform="translate(76.000000, 69.000000)">
                    <path d="M10.9937656,20.2105263 L4.88729958,20.2105263 C2.14300201,20.1638754 -0.044342814,17.9022195 0.000682834654,15.1578947 L0.000682834654,10.1052632 C-0.0243373429,7.83343084 1.47764203,5.82724123 3.66456256,5.21142851 L3.66456256,4.54736842 C3.59167641,2.11165076 5.50493976,0.0769512879 7.94053245,0 C10.3761247,0.0769512879 12.2893883,2.11165076 12.2165022,4.54736842 L12.2165022,5.21142851 C14.4034223,5.82724123 15.905401,7.83343084 15.880382,10.1052632 L15.880382,15.1578947 C15.925408,17.9022195 13.7380629,20.1638754 10.9937656,20.2105263 Z"></path>
                    <path d="M7.94051253,15.1578851 L7.94051253,12.6315693 M12.2164825,5.21141904 C11.8180177,5.10562495 11.4074593,5.05224256 10.9951894,5.05262205 L4.88727941,5.05262205 C4.4750098,5.05224256 4.06445074,5.10562495 3.66598621,5.21141904" id="Vector-2"></path>
                </g>
            </g>
        </g>
    </g>
</svg>