<?xml version="1.0" encoding="UTF-8"?>
<svg width="19px" height="14px" viewBox="0 0 19 14" version="1.1" xmlns="http://www.w3.org/2000/svg" xmlns:xlink="http://www.w3.org/1999/xlink">
    <title>Group 9</title>
    <g id="02.-Moim-(집사의-모임)" stroke="none" stroke-width="1" fill="none" fill-rule="evenodd" stroke-linecap="round" stroke-linejoin="round">
        <g id="15.-집사의-모임-상세_모임장" transform="translate(-30.000000, -813.000000)" stroke="#161719">
            <g id="Group-4" transform="translate(12.000000, 794.000000)">
                <g id="Vector" transform="translate(18.000000, 16.000000)">
                    <g id="Group-9" transform="translate(1.000000, 4.000000)">
                        <path d="M10.6888385,1.88654059 C10.6879249,2.92731869 9.84362863,3.77038126 8.80285022,3.76977282 C7.76207189,3.76916363 6.9187624,2.92511413 6.91906651,1.88433557 C6.91937078,0.843556975 7.76317353,-1.47437618e-13 8.80395205,-1.47437618e-13 C9.3040744,0.000219303782 9.78362577,0.199102467 10.1371105,0.552897463 C10.4905954,0.906692451 10.6890579,1.38641817 10.6888385,1.88654059 Z" id="Vector-23"></path>
                        <path d="M10.7491976,6.54955128 L6.86198099,6.54955128 C5.50389371,6.59221605 4.42504254,7.70549199 4.42504254,9.06424945 C4.42504254,10.4230068 5.50389371,11.536283 6.86198099,11.5789476 L10.7491976,11.5789476 C12.1072847,11.536283 13.186136,10.4230068 13.186136,9.06424945 C13.186136,7.70549199 12.1072847,6.59221605 10.7491976,6.54955128 L10.7491976,6.54955128 Z" id="Vector-24"></path>
                        <path d="M15.4560537,3.32814322 C15.4555967,4.12419707 14.8099781,4.76919854 14.0139241,4.76889437 C13.2178701,4.76858991 12.5727449,4.1230945 12.572897,3.32704047 C12.5730492,2.5309865 13.2184211,1.88573771 14.0144751,1.88573771 C14.3969489,1.88573771 14.7637453,2.03773131 15.0341174,2.30825861 C15.3044896,2.57878589 15.4562728,2.94566951 15.4560537,3.32814322 L15.4560537,3.32814322 Z" id="Vector-25"></path>
                        <path d="M1.93021077,3.32812375 C1.93021077,4.12428544 2.57562739,4.76970208 3.3717891,4.76970208 C4.16795079,4.76970208 4.81336743,4.12428544 4.81336743,3.32812375 C4.81336743,2.53196204 4.16795079,1.88654542 3.3717891,1.88654542 C2.57562739,1.88654542 1.93021077,2.53196204 1.93021077,3.32812375 L1.93021077,3.32812375 Z" id="Vector-26"></path>
                        <path d="M14.421385,7.10367207 L15.5023621,7.10367207 C16.5490551,7.1253783 17.3862344,7.98009897 17.3862344,9.02701711 C17.3862344,10.0739352 16.5490551,10.9286559 15.5023621,10.9503621 L14.421385,10.9503621 M2.96484941,7.10367207 L1.88387243,7.10367207 C0.837179309,7.1253783 -3.55271368e-15,7.98009897 -3.55271368e-15,9.02701711 C-3.55271368e-15,10.0739352 0.837179309,10.9286559 1.88387243,10.9503621 L2.96484941,10.9503621" id="Vector-27"></path>
                    </g>
                </g>
            </g>
        </g>
    </g>
</svg>