<?xml version="1.0" encoding="UTF-8"?>
<svg width="40px" height="38px" viewBox="0 0 40 38" version="1.1" xmlns="http://www.w3.org/2000/svg" xmlns:xlink="http://www.w3.org/1999/xlink">
    <title>Icons / Tabbar / paw_filled</title>
    <g id="06.-Store-(상점)" stroke="none" stroke-width="1" fill="none" fill-rule="evenodd">
        <g id="24.-상점" transform="translate(-79.000000, -134.000000)" fill="#FF7606">
            <g id="Group-4" transform="translate(16.000000, 88.000000)">
                <g id="Group" transform="translate(63.400000, 46.000000)">
                    <g id="Group-3">
                        <g id="Group-2" transform="translate(21.000000, 0.000000)">
                            <path d="M9.8,6.23076923 C9.8,9.67245887 7.60676,12.4615385 4.9,12.4615385 C2.19389333,12.4615385 0,9.67245887 0,6.23076923 C0,2.78979991 2.19389333,0 4.9,0 C7.60676,0 9.8,2.78979991 9.8,6.23076923 Z" id="Stroke-3"></path>
                            <path d="M18.2,14.5384615 C18.2,17.2150015 16.3198609,19.3846154 14,19.3846154 C11.6801391,19.3846154 9.8,17.2150015 9.8,14.5384615 C9.8,11.8619216 11.6801391,9.69230769 14,9.69230769 C16.3198609,9.69230769 18.2,11.8619216 18.2,14.5384615 Z" id="Stroke-7"></path>
                        </g>
                        <g id="Group-2" transform="translate(9.100000, 9.692308) scale(-1, 1) translate(-9.100000, -9.692308) ">
                            <path d="M9.8,6.23076923 C9.8,9.67245887 7.60676,12.4615385 4.9,12.4615385 C2.19389333,12.4615385 0,9.67245887 0,6.23076923 C0,2.78979991 2.19389333,0 4.9,0 C7.60676,0 9.8,2.78979991 9.8,6.23076923 Z" id="Stroke-3"></path>
                            <path d="M18.2,14.5384615 C18.2,17.2150015 16.3198609,19.3846154 14,19.3846154 C11.6801391,19.3846154 9.8,17.2150015 9.8,14.5384615 C9.8,11.8619216 11.6801391,9.69230769 14,9.69230769 C16.3198609,9.69230769 18.2,11.8619216 18.2,14.5384615 Z" id="Stroke-7"></path>
                        </g>
                    </g>
                    <path d="M20.3937404,34.7288388 C20.1169273,34.3977971 19.5056568,34.1671394 18.7959105,34.1671394 C18.0849632,34.1671394 17.4730922,34.398361 17.1968796,34.7299667 L17.0185423,34.9121242 C15.7737842,36.2842272 13.9201574,37.1538462 11.8497637,37.1538462 C8.10047768,37.1538462 5.06153846,34.2991049 5.06153846,30.7783326 C5.06153846,27.2564323 9.54879252,16.1538462 18.6385894,16.1538462 C18.6932314,16.1538462 18.7406679,16.1645613 18.7923077,16.1690729 C18.843347,16.1645613 18.891384,16.1538462 18.946026,16.1538462 C28.0358229,16.1538462 32.5230769,27.2564323 32.5230769,30.7783326 C32.5230769,34.2991049 29.4841377,37.1538462 25.7348517,37.1538462 C23.6692617,37.1538462 21.8192377,36.287611 20.5744795,34.9211475 L20.3937404,34.7288388 Z" id="Stroke-9"></path>
                </g>
            </g>
        </g>
    </g>
</svg>