<?xml version="1.0" encoding="UTF-8"?>
<svg width="10px" height="16px" viewBox="0 0 10 16" version="1.1" xmlns="http://www.w3.org/2000/svg" xmlns:xlink="http://www.w3.org/1999/xlink">
    <title>Vector</title>
    <g id="Symbols" stroke="none" stroke-width="1" fill="none" fill-rule="evenodd" stroke-linecap="round">
        <g id="icon_pin_select" transform="translate(-7.000000, -4.000000)" stroke="#000000" stroke-width="1.5">
            <g id="Vector" transform="translate(8.000000, 5.000000)">
                <path d="M1.30308045,8.953112 L6.66608078,8.953112 C7.31206363,8.85645241 7.83020757,8.36899844 7.96608041,7.73011198 C8.13348751,7.13051983 7.97790809,6.48700568 7.5550806,6.03011199 C6.92808023,5.45711157 6.10008033,4.90011161 6.10008033,4.0661115 L6.10008033,1.01211135 C6.09613108,0.739724646 5.9841238,0.480066528 5.78870373,0.290273482 C5.59328447,0.100480436 5.33046654,-0.00389615637 5.0580807,0.000111274728 L2.97408054,0.000111274728 C2.70169462,-0.00389615637 2.43887613,0.100480436 2.24345678,0.290273482 C2.04803752,0.480066528 1.93602976,0.739724646 1.93208051,1.01211135 L1.93208051,4.0661115 C1.93208051,4.90411186 1.10508045,5.45711157 0.477080468,6.03311182 C0.0542530355,6.49000587 -0.101326016,7.13352002 0.0660804761,7.73311207 C0.176956386,8.36148767 0.673230434,8.85094177 1.30308045,8.953112 Z" id="Vector-26" fill="#161719" stroke-linejoin="round"></path>
                <line x1="3.9840806" y1="8.953112" x2="3.9840806" y2="14.000112" id="Vector-27"></line>
            </g>
        </g>
    </g>
</svg>