<?xml version="1.0" encoding="UTF-8"?>
<svg width="20px" height="20px" viewBox="0 0 20 20" version="1.1" xmlns="http://www.w3.org/2000/svg" xmlns:xlink="http://www.w3.org/1999/xlink">
    <title>Group 6</title>
    <g id="Page-1" stroke="none" stroke-width="1" fill="none" fill-rule="evenodd">
        <g id="17.-집사의-자랑" transform="translate(-20.000000, -684.000000)">
            <g id="Group-8" transform="translate(0.000000, 173.000000)">
                <g id="Group" transform="translate(0.000000, 72.000000)">
                    <g id="Group-11" transform="translate(0.000000, 425.000000)">
                        <g id="Group-6" transform="translate(20.000000, 14.000000)">
                            <rect id="Rectangle" fill="#FFFFFF" x="0" y="0" width="20" height="20"></rect>
                            <g id="Vector" transform="translate(3.000000, 5.000000)" stroke="#B2B2B2" stroke-linecap="round" stroke-linejoin="round">
                                <path d="M14,4.5 C14,6.9849999 10.8659998,9 7,9 C3.1340001,9 0,6.9849999 0,4.5 C0,2.01500001 3.1340001,0 7,0 C10.8659998,0 14,2.01500001 14,4.5 Z"></path>
                                <path d="M8.75000017,4.5 C8.77161632,5.13932363 8.44287651,5.73955499 7.89252821,6.0656203 C7.34217971,6.39168583 6.65782049,6.39168583 6.10747209,6.0656203 C5.55712364,5.73955499 5.22838389,5.13932363 5.25000006,4.5 C5.22838389,3.86067637 5.55712364,3.26044501 6.10747209,2.93437977 C6.65782049,2.60831448 7.34217971,2.60831448 7.89252821,2.93437977 C8.44287651,3.26044501 8.77161632,3.86067637 8.75000017,4.5 L8.75000017,4.5 Z" id="Vector-2"></path>
                            </g>
                        </g>
                    </g>
                </g>
            </g>
        </g>
    </g>
</svg>