<svg width="156" height="130" viewBox="0 0 156 130" xmlns="http://www.w3.org/2000/svg">
    <g fill="#FFF" fill-rule="nonzero">
        <path d="M65.917 0v53.245H51.87V11.272H3.025V0h62.892zm86.45 41.115v11.272H88.395V.752h14.372v40.363h49.6zM41.927 87.704c0 3.578.541 7.013 1.622 10.306 1.08 3.292 2.756 6.297 5.025 9.017 2.269 2.72 5.133 5.1 8.59 7.139 3.458 2.04 7.601 3.596 12.428 4.669L63 129.57c-6.989-1.79-12.805-4.544-17.452-8.266-4.647-3.721-8.23-8.194-10.752-13.418-2.522 5.225-6.106 9.697-10.752 13.418-4.647 3.722-10.464 6.477-17.453 8.266L0 118.835c4.827-1.073 8.97-2.63 12.427-4.67 3.458-2.039 6.322-4.418 8.591-7.138 2.27-2.72 3.944-5.725 5.025-9.017 1.08-3.293 1.621-6.728 1.621-10.306v-2.576H3.35V73.856h63.432v11.271H41.928v2.578-.001zm85.004.322c0 3.578.558 6.995 1.675 10.252 1.116 3.256 2.864 6.226 5.24 8.91 2.378 2.684 5.386 5.028 9.023 7.032 3.64 2.004 8.015 3.542 13.131 4.615L149.3 130c-7.205-1.646-13.256-4.24-18.155-7.783-4.899-3.543-8.68-7.82-11.346-12.829-2.738 5.01-6.556 9.286-11.455 12.829-4.898 3.543-10.914 6.137-18.046 7.783l-6.7-11.165c5.042-1.073 9.4-2.612 13.075-4.615 3.675-2.005 6.7-4.348 9.077-7.032 2.378-2.684 4.125-5.654 5.242-8.91 1.116-3.256 1.675-6.674 1.675-10.252V73.319h14.263v14.707h.001z"/>
        <circle cx="93.5" cy="75.5" r="8.5"/>
        <circle cx="147.5" cy="75.5" r="8.5"/>
    </g>
</svg>
