<svg width="19" height="19" viewBox="0 0 19 19" xmlns="http://www.w3.org/2000/svg">
    <g fill="none" fill-rule="evenodd">
        <circle fill="#DBDBDB" cx="9.5" cy="9.5" r="9.5"/>
        <g fill="#FFF" fill-rule="nonzero">
            <path d="M9.506 9.029c-.866 0-1.61.341-2.209 1.014-.845.95-1.104 2.205-1.094 2.44.021.495.206.887.52 1.103a.598.598 0 0 0 .343.113c.29 0 .606-.21.973-.452.05-.032.106-.074.17-.12.303-.223.76-.558 1.252-.558.531 0 1.098.413 1.403.635l.095.069c.34.24.662.467.947.467.107 0 .211-.031.31-.092.368-.224.607-.507.58-1.165-.03-.686-.705-3.454-3.29-3.454zM7.743 8.087c.046 0 .092-.003.138-.01.765-.103 1.269-1.028 1.123-2.062-.135-.951-.8-1.697-1.515-1.697-.046 0-.093.003-.139.01-.36.048-.676.283-.89.662-.222.394-.304.891-.232 1.4.135.951.8 1.697 1.515 1.697zM5.121 8.087a.623.623 0 0 0-.174.025c-.497.145-.749.868-.573 1.647.153.68.575 1.154 1.025 1.154a.622.622 0 0 0 .174-.025c.497-.145.75-.868.574-1.647-.153-.68-.575-1.154-1.026-1.154zM11.119 8.078c.768.103 1.51-.675 1.653-1.688.072-.509-.01-1.006-.233-1.4-.213-.379-.529-.614-.889-.662a1.047 1.047 0 0 0-.139-.01c-.714 0-1.38.746-1.515 1.697-.146 1.034.357 1.96 1.123 2.063zM14.053 8.112a.623.623 0 0 0-.175-.025c-.45 0-.871.475-1.025 1.154-.175.779.077 1.502.574 1.647a.622.622 0 0 0 .174.025c.45 0 .872-.474 1.025-1.154.176-.779-.076-1.502-.573-1.647z"/>
        </g>
    </g>
</svg>
