<?xml version="1.0" encoding="UTF-8"?>
<svg width="26px" height="25px" viewBox="0 0 26 25" version="1.1" xmlns="http://www.w3.org/2000/svg" xmlns:xlink="http://www.w3.org/1999/xlink">
    <title>Group</title>
    <g id="05.-My-(프로필)" stroke="none" stroke-width="1" fill="none" fill-rule="evenodd">
        <g id="23.-프로필_b" transform="translate(-25.000000, -1228.000000)" stroke="#161719" stroke-width="1.4">
            <g id="Group-3" transform="translate(0.000000, 1206.000000)">
                <g id="Group" transform="translate(25.000000, 23.000000)">
                    <g id="Group-3">
                        <g id="Group-2" transform="translate(13.553913, 0.000000)">
                            <path d="M6.37942029,3.85714286 C6.37942029,5.98771263 5.02170029,7.71428571 3.34608696,7.71428571 C1.67087807,7.71428571 0.312753623,5.98771263 0.312753623,3.85714286 C0.312753623,1.72701899 1.67087807,0 3.34608696,0 C5.02170029,0 6.37942029,1.72701899 6.37942029,3.85714286 Z" id="Stroke-3"></path>
                            <path d="M11.5794203,9 C11.5794203,10.6569057 10.4155246,12 8.97942029,12 C7.54331594,12 6.37942029,10.6569057 6.37942029,9 C6.37942029,7.34309434 7.54331594,6 8.97942029,6 C10.4155246,6 11.5794203,7.34309434 11.5794203,9 Z" id="Stroke-7"></path>
                        </g>
                        <g id="Group-2" transform="translate(6.182319, 6.000000) scale(-1, 1) translate(-6.182319, -6.000000) translate(0.182319, 0.000000)">
                            <path d="M6.11565217,3.85714286 C6.11565217,5.98771263 4.75793217,7.71428571 3.08231884,7.71428571 C1.40710995,7.71428571 0.0489855072,5.98771263 0.0489855072,3.85714286 C0.0489855072,1.72701899 1.40710995,0 3.08231884,0 C4.75793217,0 6.11565217,1.72701899 6.11565217,3.85714286 Z" id="Stroke-3"></path>
                            <path d="M11.3156522,9 C11.3156522,10.6569057 10.1517565,12 8.71565217,12 C7.27954783,12 6.11565217,10.6569057 6.11565217,9 C6.11565217,7.34309434 7.27954783,6 8.71565217,6 C10.1517565,6 11.3156522,7.34309434 11.3156522,9 Z" id="Stroke-7"></path>
                        </g>
                    </g>
                    <path d="M13.4913631,21.498805 C13.3200026,21.2938744 12.9415971,21.1510863 12.5022303,21.1510863 C12.0621201,21.1510863 11.6833428,21.2942235 11.512354,21.4995032 L11.4019548,21.6122674 C10.6313902,22.4616645 9.48390694,23 8.20223466,23 C5.88124809,23 4,21.2327792 4,19.0532535 C4,16.8730295 6.77782394,10 12.404841,10 C12.4386671,10 12.4680325,10.0066332 12.5,10.0094261 C12.5315957,10.0066332 12.5613329,10 12.595159,10 C18.2221761,10 21,16.8730295 21,19.0532535 C21,21.2327792 19.1187519,23 16.7977653,23 C15.5190668,23 14.3738138,22.4637592 13.6032492,21.6178532 L13.4913631,21.498805 Z" id="Stroke-9"></path>
                </g>
            </g>
        </g>
    </g>
</svg>