<?xml version="1.0" encoding="UTF-8"?>
<svg width="26px" height="25px" viewBox="0 0 26 25" version="1.1" xmlns="http://www.w3.org/2000/svg" xmlns:xlink="http://www.w3.org/1999/xlink">
    <title>Group</title>
    <g id="01.-Today-(오늘의-집사)" stroke="none" stroke-width="1" fill="none" fill-rule="evenodd">
        <g id="10.-메인_오늘의-심사-완료-후" transform="translate(-25.000000, -1146.000000)" fill="#161719">
            <g id="Group-3" transform="translate(0.000000, 1124.000000)">
                <g id="Group" transform="translate(25.000000, 22.000000)">
                    <g id="Group-3">
                        <g id="Group-2" transform="translate(13.884496, 0.000000)">
                            <path d="M6.53501591,3.95121951 C6.53501591,6.13375441 5.14418078,7.90243902 3.42769883,7.90243902 C1.71163119,7.90243902 0.32038176,6.13375441 0.32038176,3.95121951 C0.32038176,1.76914141 1.71163119,0 3.42769883,0 C5.14418078,0 6.53501591,1.76914141 6.53501591,3.95121951 Z" id="Stroke-3"></path>
                            <path d="M11.8618452,9.2195122 C11.8618452,10.9168302 10.6695618,12.2926829 9.19843054,12.2926829 C7.72729926,12.2926829 6.53501591,10.9168302 6.53501591,9.2195122 C6.53501591,7.5221942 7.72729926,6.14634146 9.19843054,6.14634146 C10.6695618,6.14634146 11.8618452,7.5221942 11.8618452,9.2195122 Z" id="Stroke-7"></path>
                        </g>
                        <g id="Group-2" transform="translate(6.455058, 6.341463) scale(-1, 1) translate(-6.455058, -6.341463) translate(0.430668, 0.000000)">
                            <path d="M6.26481442,3.95121951 C6.26481442,6.13375441 4.8739793,7.90243902 3.15749735,7.90243902 C1.44142971,7.90243902 0.0501802757,6.13375441 0.0501802757,3.95121951 C0.0501802757,1.76914141 1.44142971,0 3.15749735,0 C4.8739793,0 6.26481442,1.76914141 6.26481442,3.95121951 Z" id="Stroke-3"></path>
                            <path d="M11.5916437,9.2195122 C11.5916437,10.9168302 10.3993603,12.2926829 8.92822906,12.2926829 C7.45709777,12.2926829 6.26481442,10.9168302 6.26481442,9.2195122 C6.26481442,7.5221942 7.45709777,6.14634146 8.92822906,6.14634146 C10.3993603,6.14634146 11.5916437,7.5221942 11.5916437,9.2195122 Z" id="Stroke-7"></path>
                        </g>
                    </g>
                    <path d="M13.8204207,22.023166 C13.6448807,21.8132372 13.2572458,21.6669664 12.8071627,21.6669664 C12.3563181,21.6669664 11.9683024,21.8135948 11.7931432,22.0238813 L11.6800512,22.1393958 C10.8906924,23.0095099 9.71522174,23.5609756 8.40228917,23.5609756 C6.02469316,23.5609756 4.09756098,21.7506519 4.09756098,19.517967 C4.09756098,17.2845668 6.94313672,10.2439024 12.7073981,10.2439024 C12.7420492,10.2439024 12.7721309,10.2506974 12.804878,10.2535585 C12.8372444,10.2506974 12.8677069,10.2439024 12.902358,10.2439024 C18.6666194,10.2439024 21.5121951,17.2845668 21.5121951,19.517967 C21.5121951,21.7506519 19.5850629,23.5609756 17.2074669,23.5609756 C15.8975806,23.5609756 14.7243946,23.0116557 13.9350358,22.1451179 L13.8204207,22.023166 Z" id="Stroke-9"></path>
                </g>
            </g>
        </g>
    </g>
</svg>