<?xml version="1.0" encoding="UTF-8"?>
<svg width="19px" height="26px" viewBox="0 0 19 26" version="1.1" xmlns="http://www.w3.org/2000/svg" xmlns:xlink="http://www.w3.org/1999/xlink">
    <title>Vector</title>
    <g id="Page-1" stroke="none" stroke-width="1" fill="none" fill-rule="evenodd" stroke-linecap="round" stroke-linejoin="round">
        <g id="23.-프로필" transform="translate(-103.000000, -753.000000)" stroke="#000000" stroke-width="1.5">
            <g id="Group-3" transform="translate(0.000000, 732.000000)">
                <g id="Group-2" transform="translate(75.000000, 0.000000)">
                    <g id="Vector" transform="translate(29.000000, 22.000000)">
                        <path d="M8.57142857,0 C9.69604046,0 10.8098961,0.218952264 11.8508571,0.644571432 C13.41372,1.28422138 14.7522456,2.3722212 15.6977143,3.77142864 C16.6369097,5.15806848 17.1401667,6.7938024 17.1428571,8.46857136 C17.1428571,10.7142857 16.428,12 14.6314286,14.4565716 L12.1422857,18.3428578 L8.57142857,24 L5.00057143,18.3548568 L2.51142857,14.4617136 C0.714857143,12 0,10.7194284 0,8.47371408 C0.0016650804,6.79719192 0.504966874,5.15952048 1.44514286,3.77142864 C2.39136823,2.37412608 3.72981703,1.28797824 5.292,0.64971432 C6.33260863,0.22233372 7.44647657,0.00165632328 8.57142857,0 M8.57142857,11.292 C9.58014254,11.292 10.5122326,10.7538573 11.0165896,9.88028571 C11.5209466,9.00671409 11.5209466,7.93042905 11.0165896,7.05685714 C10.5122326,6.18328524 9.58014254,5.64514286 8.57142857,5.64514286 M8.57142874,11.3022857 C7.54643705,11.3275475 6.58830725,10.7951623 6.06837982,9.91146443 C5.54845243,9.02776692 5.54845243,7.93166131 6.06837982,7.04796363 C6.58830725,6.16426601 7.54643705,5.6318804 8.57142874,5.65714267" id="Vector-14"></path>
                    </g>
                </g>
            </g>
        </g>
    </g>
</svg>