<?xml version="1.0" encoding="UTF-8"?>
<svg width="23px" height="26px" viewBox="0 0 23 26" version="1.1" xmlns="http://www.w3.org/2000/svg" xmlns:xlink="http://www.w3.org/1999/xlink">
    <title>Vector</title>
    <g id="Page-1" stroke="none" stroke-width="1" fill="none" fill-rule="evenodd" stroke-linecap="round" stroke-linejoin="round">
        <g id="23.-프로필" transform="translate(-326.000000, -753.000000)" fill="#161719" stroke="#000000" stroke-width="1.5">
            <g id="Group-3" transform="translate(0.000000, 732.000000)">
                <g id="Group-2" transform="translate(300.000000, 0.000000)">
                    <g id="Vector" transform="translate(27.000000, 22.000000)">
                        <path d="M15.4285714,5.14285714 C15.4285714,7.98317856 13.1260357,10.2857143 10.2857143,10.2857143 C7.44539277,10.2857143 5.14285714,7.98317856 5.14285714,5.14285714 C5.14285714,2.30253562 7.44539277,0 10.2857143,0 C11.6496847,0 12.9577906,0.541835177 13.9222635,1.50630809 C14.8867365,2.4707808 15.4285714,3.77888678 15.4285714,5.14285714 Z" id="Vector-13"></path>
                        <path d="M16.285715,15.4285714 L4.28571422,15.4285714 C1.91877963,15.4285714 0,17.3473511 0,19.7142857 C0,22.0812202 1.91877963,24 4.28571422,24 L16.285715,24 C18.6526491,24 20.5714286,22.0812202 20.5714286,19.7142857 C20.5714286,17.3473511 18.6526491,15.4285714 16.285715,15.4285714 L16.285715,15.4285714 Z" id="Vector-14"></path>
                    </g>
                </g>
            </g>
        </g>
    </g>
</svg>